{
  "accessors": [
    {
      "bufferView": 2,
      "componentType": 5126,
      "count": 2141,
      "max": [
        0.9872310161590576,
        0.9975767135620117,
        0.9872307181358337
      ],
      "min": [
        -0.9872305393218994,
        -0.9975767135620117,
        -0.9872310161590576
      ],
      "type": "VEC3"
    },
    {
      "bufferView": 2,
      "byteOffset": 25692,
      "componentType": 5126,
      "count": 2141,
      "max": [
        1.0,
        1.0,
        1.0
      ],
      "min": [
        -1.0,
        -1.0,
        -1.0
      ],
      "type": "VEC3"
    },
    {
      "bufferView": 3,
      "componentType": 5126,
      "count": 2141,
      "max": [
        1.0,
        0.06661011278629303,
        1.0,
        1.0
      ],
      "min": [
        -1.0,
        -0.06661143153905869,
        -1.0,
        1.0
      ],
      "type": "VEC4"
    },
    {
      "bufferView": 1,
      "componentType": 5126,
      "count": 2141,
      "max": [
        1.0000001192092896,
        1.0000001192092896
      ],
      "min": [
        0.0,
        0.0
      ],
      "type": "VEC2"
    },
    {
      "bufferView": 1,
      "byteOffset": 17128,
      "componentType": 5126,
      "count": 2141,
      "max": [
        1.0000001192092896,
        1.0000001192092896
      ],
      "min": [
        0.0,
        0.0
      ],
      "type": "VEC2"
    },
    {
      "bufferView": 0,
      "componentType": 5125,
      "count": 11904,
      "type": "SCALAR"
    },
    {
      "bufferView": 4,
      "componentType": 5126,
      "count": 126,
      "max": [
        13.333333015441895
      ],
      "min": [
        0.03333333507180214
      ],
      "type": "SCALAR"
    },
    {
      "bufferView": 6,
      "componentType": 5126,
      "count": 126,
      "max": [
        0.06769178062677383,
        0.3268713653087616,
        -0.19115577638149261,
        0.97922283411026
      ],
      "min": [
        0.0,
        0.0,
        -0.20278732478618622,
        0.9230560064315796
      ],
      "type": "VEC4"
    },
    {
      "bufferView": 4,
      "byteOffset": 504,
      "componentType": 5126,
      "count": 109,
      "max": [
        13.333333015441895
      ],
      "min": [
        0.03333333507180214
      ],
      "type": "SCALAR"
    },
    {
      "bufferView": 5,
      "componentType": 5126,
      "count": 109,
      "max": [
        1.3827245235443115,
        1.3827242851257324,
        1.382724404335022
      ],
      "min": [
        1.3827241659164429,
        1.3827242851257324,
        1.3827241659164429
      ],
      "type": "VEC3"
    },
    {
      "bufferView": 4,
      "byteOffset": 940,
      "componentType": 5126,
      "count": 126,
      "max": [
        13.333333015441895
      ],
      "min": [
        0.03333333507180214
      ],
      "type": "SCALAR"
    },
    {
      "bufferView": 6,
      "byteOffset": 2016,
      "componentType": 5126,
      "count": 126,
      "max": [
        0.0,
        0.3338068723678589,
        -0.0,
        1.0
      ],
      "min": [
        0.0,
        0.0,
        -0.0,
        0.9426414966583252
      ],
      "type": "VEC4"
    },
    {
      "bufferView": 4,
      "byteOffset": 1444,
      "componentType": 5126,
      "count": 3,
      "max": [
        13.333333015441895
      ],
      "min": [
        0.03333333507180214
      ],
      "type": "SCALAR"
    },
    {
      "bufferView": 5,
      "byteOffset": 1308,
      "componentType": 5126,
      "count": 3,
      "max": [
        1.0,
        1.0,
        1.0
      ],
      "min": [
        0.9999999403953552,
        1.0,
        0.9999999403953552
      ],
      "type": "VEC3"
    }
  ],
  "animations": [
    {
      "channels": [
        {
          "sampler": 0,
          "target": {
            "node": 3,
            "path": "rotation"
          }
        },
        {
          "sampler": 1,
          "target": {
            "node": 3,
            "path": "scale"
          }
        },
        {
          "sampler": 2,
          "target": {
            "node": 5,
            "path": "rotation"
          }
        },
        {
          "sampler": 3,
          "target": {
            "node": 5,
            "path": "scale"
          }
        }
      ],
      "name": "Animation",
      "samplers": [
        {
          "input": 6,
          "interpolation": "LINEAR",
          "output": 7
        },
        {
          "input": 8,
          "interpolation": "LINEAR",
          "output": 9
        },
        {
          "input": 10,
          "interpolation": "LINEAR",
          "output": 11
        },
        {
          "input": 12,
          "interpolation": "LINEAR",
          "output": 13
        }
      ]
    }
  ],
  "asset": {
    "extras": {
      "author": "its.nihal (https://sketchfab.com/its.nihal)",
      "license": "CC-BY-SA-4.0 (http://creativecommons.org/licenses/by-sa/4.0/)",
      "source": "https://sketchfab.com/3d-models/earth-rotation-374e5604a9184f7693c1b64144e9a041",
      "title": "Earth Rotation"
    },
    "generator": "Sketchfab-14.59.0",
    "version": "2.0"
  },
  "bufferViews": [
    {
      "buffer": 0,
      "byteLength": 47616,
      "name": "floatBufferViews",
      "target": 34963
    },
    {
      "buffer": 0,
      "byteLength": 34256,
      "byteOffset": 47616,
      "byteStride": 8,
      "name": "floatBufferViews",
      "target": 34962
    },
    {
      "buffer": 0,
      "byteLength": 51384,
      "byteOffset": 81872,
      "byteStride": 12,
      "name": "floatBufferViews",
      "target": 34962
    },
    {
      "buffer": 0,
      "byteLength": 34256,
      "byteOffset": 133256,
      "byteStride": 16,
      "name": "floatBufferViews",
      "target": 34962
    },
    {
      "buffer": 0,
      "byteLength": 1456,
      "byteOffset": 167512,
      "name": "floatBufferViews"
    },
    {
      "buffer": 0,
      "byteLength": 1344,
      "byteOffset": 168968,
      "byteStride": 12,
      "name": "floatBufferViews"
    },
    {
      "buffer": 0,
      "byteLength": 4032,
      "byteOffset": 170312,
      "byteStride": 16,
      "name": "floatBufferViews"
    }
  ],
  "buffers": [
    {
      "byteLength": 174344,
      "uri": "scene.bin"
    }
  ],
  "images": [
    {
      "uri": "textures/Material.001_baseColor.jpeg"
    },
    {
      "uri": "textures/Material.001_normal.png"
    }
  ],
  "materials": [
    {
      "doubleSided": true,
      "name": "Material.001",
      "normalTexture": {
        "index": 1
      },
      "pbrMetallicRoughness": {
        "baseColorTexture": {
          "index": 0
        },
        "metallicFactor": 0.0,
        "roughnessFactor": 0.642
      }
    }
  ],
  "meshes": [
    {
      "name": "Object_0",
      "primitives": [
        {
          "attributes": {
            "NORMAL": 1,
            "POSITION": 0,
            "TANGENT": 2,
            "TEXCOORD_0": 3,
            "TEXCOORD_1": 4
          },
          "indices": 5,
          "material": 0,
          "mode": 4
        }
      ]
    }
  ],
  "nodes": [
    {
      "children": [
        1
      ],
      "matrix": [
        1.0,
        0.0,
        0.0,
        0.0,
        0.0,
        2.220446049250313e-16,
        -1.0,
        0.0,
        0.0,
        1.0,
        2.220446049250313e-16,
        0.0,
        0.0,
        0.0,
        0.0,
        1.0
      ],
      "name": "Sketchfab_model"
    },
    {
      "children": [
        2
      ],
      "name": "root"
    },
    {
      "children": [
        3,
        5
      ],
      "matrix": [
        1.0,
        0.0,
        0.0,
        0.0,
        0.0,
        2.220446049250313e-16,
        1.0,
        0.0,
        0.0,
        -1.0,
        2.220446049250313e-16,
        0.0,
        0.0,
        0.0,
        0.0,
        1.0
      ],
      "name": "GLTF_SceneRootNode"
    },
    {
      "children": [
        4
      ],
      "name": "Earth_0",
      "rotation": [
        0.0,
        0.0,
        -0.20278729498386383,
        0.97922283411026
      ],
      "scale": [
        1.3827242851257324,
        1.3827242851257324,
        1.3827242851257324
      ]
    },
    {
      "mesh": 0,
      "name": "Object_4"
    },
    {
      "name": "Empty_2",
      "translation": [
        7.303901195526123,
        0.0,
        0.0
      ]
    }
  ],
  "samplers": [
    {
      "magFilter": 9729,
      "minFilter": 9987,
      "wrapS": 10497,
      "wrapT": 10497
    }
  ],
  "scene": 0,
  "scenes": [
    {
      "name": "Sketchfab_Scene",
      "nodes": [
        0
      ]
    }
  ],
  "textures": [
    {
      "sampler": 0,
      "source": 0
    },
    {
      "sampler": 0,
      "source": 1
    }
  ]
}
